Coordinates
version=1
nRows=24
nColumns=22
inDegrees=yes

Units are S.I. units (second, meters, Newtons, ...)
If the header above contains a line with 'inDegrees', this indicates whether rotational values are in degrees (yes) or radians (no).

endheader
time	pelvis_tilt	pelvis_list	pelvis_rotation	pelvis_tx	pelvis_ty	pelvis_tz	hip_flexion_r	hip_adduction_r	hip_rotation_r	knee_angle_r	ankle_angle_r	subtalar_angle_r	hip_flexion_l	hip_adduction_l	hip_rotation_l	knee_angle_l	ankle_angle_l	subtalar_angle_l	lumbar_extension	lumbar_bending	lumbar_rotation
      2.70000000	      1.28782510	     -3.00636738	     25.24120052	      0.15346806	      1.05985867	      1.02297889	     20.40539439	      2.85178123	      8.29593198	    -18.12142033	      5.62646667	      7.59223038	     -9.20599064	      1.60740701	     16.38749569	    -23.55616161	     15.20495108	     -1.78139647	     -4.13529431	      1.17224672	    -10.30109110
      2.71000000	      1.47796844	     -3.16145734	     25.98047019	      0.16279834	      1.06099987	      1.01951689	     19.98263143	      3.04744420	      8.01494147	    -18.67191601	      5.72543799	      7.18277131	     -8.82734221	      1.34050449	     16.52765453	    -25.28068206	     14.06575947	     -0.41015658	     -4.04709485	      1.42953118	    -10.45049086
      2.72000000	      1.66438531	     -3.28380641	     26.76335465	      0.17198417	      1.06220395	      1.01596801	     19.48943516	      3.19628447	      7.67222897	    -19.09995402	      5.91076584	      6.67659819	     -8.33121672	      1.10668638	     16.62542251	    -27.16771823	     12.72681239	      1.10945916	     -3.98100129	      1.65347190	    -10.61041762
      2.73000000	      1.84553076	     -3.37994820	     27.57462844	      0.18102485	      1.06344246	      1.01239195	     18.91758236	      3.30887840	      7.26540797	    -19.37472675	      6.13612067	      6.09845957	     -7.71066220	      0.89602402	     16.65041207	    -29.21038317	     11.18441408	      2.76889049	     -3.93650328	      1.83742687	    -10.73870984
      2.74000000	      2.03333688	     -3.46575652	     28.43157708	      0.18985870	      1.06465903	      1.00874745	     18.28910448	      3.39479708	      6.73020224	    -19.54345585	      6.43793165	      5.49787450	     -6.96741852	      0.68428456	     16.60949966	    -31.39888456	      9.48472996	      4.44786676	     -3.92328395	      2.01659514	    -10.84808294
      2.75000000	      2.22936212	     -3.54400432	     29.30524088	      0.19847433	      1.06584162	      1.00510177	     17.60756889	      3.46844499	      6.10493043	    -19.60335345	      6.74279851	      4.91803284	     -6.10551630	      0.46598726	     16.47582172	    -33.71300365	      7.64259870	      6.09603485	     -3.94704519	      2.18982784	    -10.91561086
      2.76000000	      2.43356155	     -3.61414718	     30.15051335	      0.20689232	      1.06697755	      1.00152631	     16.88359327	      3.54803362	      5.45682009	    -19.57305210	      7.02065228	      4.38126065	     -5.13695347	      0.24056052	     16.21470512	    -36.12343417	      5.67991776	      7.68164568	     -4.01212591	      2.35662767	    -10.89479952
      2.77000000	      2.65202301	     -3.68774955	     30.99521851	      0.21508804	      1.06803029	      0.99796470	     16.12881159	      3.63205394	      4.71185333	    -19.47233462	      7.32785468	      3.91570251	     -4.06001258	     -0.01193163	     15.85576737	    -38.62424770	      3.67558038	      9.01827764	     -4.11265463	      2.53490807	    -10.81493310
      2.78000000	      2.88606732	     -3.76085885	     31.80725184	      0.22308574	      1.06900485	      0.99448397	     15.34994102	      3.73466226	      3.93196518	    -19.31758850	      7.62551002	      3.52354841	     -2.89073087	     -0.28932312	     15.39326956	    -41.19024051	      1.65928746	     10.08952077	     -4.25434727	      2.71768920	    -10.66204727
      2.79000000	      3.14120048	     -3.83826005	     32.58387130	      0.23090146	      1.06991118	      0.99108102	     14.54940832	      3.86685784	      3.12961408	    -19.11812708	      7.91859336	      3.21238555	     -1.64491994	     -0.60353985	     14.84285269	    -43.79290652	     -0.32818981	     10.86385015	     -4.43345645	      2.91268452	    -10.44409768
      2.80000000	      3.42229900	     -3.90701933	     33.31178814	      0.23852521	      1.07076828	      0.98779386	     13.73319925	      4.03352222	      2.38685399	    -18.90777178	      8.17045069	      2.96917959	     -0.34826148	     -0.94318832	     14.22766116	    -46.40478988	     -2.25568329	     11.43583527	     -4.66713573	      3.11225033	    -10.17747145
      2.81000000	      3.69386413	     -3.97783836	     33.98439677	      0.24604615	      1.07154438	      0.98461032	     12.92949830	      4.22556052	      1.69710319	    -18.67330378	      8.42688094	      2.71259289	      1.01034661	     -1.30487909	     13.55849638	    -48.97904484	     -4.03488555	     11.94950784	     -4.89477371	      3.29649527	     -9.85521407
      2.82000000	      3.97079368	     -4.04228635	     34.60591664	      0.25346524	      1.07228763	      0.98151168	     12.12393245	      4.44443460	      1.07825533	    -18.42486436	      8.65974113	      2.46510346	      2.38944054	     -1.68287823	     12.86928318	    -51.47051582	     -5.61192745	     12.36363002	     -5.13623609	      3.47053249	     -9.50459256
      2.83000000	      4.24516095	     -4.10063334	     35.18150020	      0.26081489	      1.07300992	      0.97848851	     11.32210772	      4.68547622	      0.53091620	    -18.16277740	      8.86624339	      2.20383069	      3.77466395	     -2.07048401	     12.18201301	    -53.83898464	     -6.90454203	     12.62849869	     -5.37660562	      3.62633319	     -9.13751576
      2.84000000	      4.51279574	     -4.14535861	     35.71181732	      0.26810422	      1.07372839	      0.97551309	     10.52238968	      4.93648693	      0.05454335	    -17.88905431	      9.03803913	      1.92575459	      5.14440291	     -2.45147618	     11.50949157	    -56.04755203	     -7.84255630	     12.64314732	     -5.61437594	      3.75775169	     -8.76393854
      2.85000000	      4.73581656	     -4.17541607	     36.19814645	      0.27534135	      1.07440820	      0.97256937	      9.75548695	      5.17215618	     -0.33942174	    -17.60630397	      9.20122123	      1.54625887	      6.51686523	     -2.79646644	     10.85247863	    -58.06672473	     -8.42719002	     12.18669172	     -5.81072104	      3.83992251	     -8.39832931
      2.86000000	      4.96106323	     -4.19170292	     36.64657726	      0.28254539	      1.07512392	      0.96962135	      8.97260151	      5.41326749	     -0.70112175	    -17.29873168	      9.30871532	      1.20841697	      7.83210693	     -3.12986455	     10.22563987	    -59.86895643	     -8.61376839	     11.32547193	     -6.00969463	      3.90558493	     -8.01004088
      2.87000000	      5.14996031	     -4.18633393	     37.05244016	      0.28969798	      1.07583964	      0.96666333	      8.19875206	      5.62928132	     -0.98901613	    -16.96576921	      9.40865554	      0.86218723	      9.11463048	     -3.41601664	      9.62031664	    -61.44026925	     -8.51984851	     10.04811185	     -6.18501447	      3.92690690	     -7.62475356
      2.88000000	      5.30995487	     -4.17469990	     37.42247598	      0.29679289	      1.07653082	      0.96366462	      7.44190789	      5.83121374	     -1.23848911	    -16.61853084	      9.50899514	      0.53214191	     10.35964701	     -3.66941076	      9.04212865	    -62.77620943	     -8.11270155	      8.50439427	     -6.33195108	      3.92596636	     -7.22742590
      2.89000000	      5.41594810	     -4.14206944	     37.75902653	      0.30379216	      1.07719154	      0.96060628	      6.71539388	      5.98460370	     -1.45249505	    -16.25992233	      9.58672339	      0.21744309	     11.57306488	     -3.85259853	      8.49338617	    -63.86577399	     -7.48585871	      6.74856202	     -6.44326153	      3.87484486	     -6.81960947
      2.90000000	      5.48323886	     -4.10621214	     38.07002913	      0.31066354	      1.07780105	      0.95748253	      6.02618475	      6.10864366	     -1.65891192	    -15.90512359	      9.66415556	     -0.06521425	     12.76066022	     -3.99309325	      7.97217303	    -64.71862769	     -6.74804957	      4.92702008	     -6.52687844	      3.80382197	     -6.39526293
      2.91000000	      5.50552663	     -4.07082685	     38.37091150	      0.31738556	      1.07834074	      0.95427118	      5.37238985	      6.20071966	     -1.84344490	    -15.53799855	      9.75253751	     -0.30546291	     13.93072090	     -4.08535569	      7.49153881	    -65.33602969	     -5.95116714	      3.13484493	     -6.57524109	      3.71448804	     -5.97676984
      2.92000000	      5.49938305	     -4.03019223	     38.66147437	      0.32394002	      1.07880694	      0.95097827	      4.75937655	      6.26100222	     -2.06059154	    -15.20073306	      9.87637863	     -0.49566298	     15.06688133	     -4.13817626	      7.04343144	    -65.72489449	     -5.13715769	      1.45437644	     -6.61416188	      3.61231591	     -5.52925721
      2.93000000	      5.43338048	     -3.94475198	     38.95547168	      0.33035265	      1.07922138	      0.94755679	      4.16675913	      6.23588039	     -2.29701219	    -14.86303151	     10.04465402	     -0.63738111	     16.15652214	     -4.10052054	      6.61303267	    -65.86402368	     -4.34153636	     -0.11745203	     -6.63438842	      3.43979271	     -5.11736343
